<?xml version="1.0" standalone="no"?>
<!DOCTYPE svg PUBLIC "-//W3C//DTD SVG 20010904//EN"
 "http://www.w3.org/TR/2001/REC-SVG-20010904/DTD/svg10.dtd">
<svg version="1.0" xmlns="http://www.w3.org/2000/svg"
 width="535.000000pt" height="501.000000pt" viewBox="0 0 535.000000 501.000000"
 preserveAspectRatio="xMidYMid meet">
<metadata>
Created by potrace 1.10, written by Peter Selinger 2001-2011
</metadata>
<g transform="translate(0.000000,501.000000) scale(0.050000,-0.050000)"
fill="#000000" stroke="none">
<path d="M4160 8810 c-2280 -340 -3475 -2840 -2307 -4826 1355 -2304 4840
-1986 5774 526 844 2269 -1081 4657 -3467 4300z m380 -1695 l-1 -1585 -334
-144 -335 -143 -13 73 c-7 41 -23 223 -36 404 -26 372 -37 427 -87 436 -45 9
-1669 -733 -1682 -769 -6 -14 72 -193 172 -397 100 -204 178 -374 174 -379
-56 -55 -571 -248 -591 -221 -125 171 -251 780 -253 1220 -6 1668 1251 2987
2941 3087 l45 3 0 -1585z m450 1555 c1353 -134 2500 -1289 2672 -2690 57 -466
-70 -1332 -227 -1546 -23 -32 -130 8 -1385 532 l-1360 567 -5 1558 c-6 1753
-15 1615 100 1601 47 -6 139 -16 205 -22z m-191 -3344 c100 -41 181 -80 181
-87 0 -7 -232 -126 -515 -265 -1628 -796 -1947 -957 -1958 -986 -19 -48 46
-95 223 -164 376 -145 544 -210 960 -374 365 -144 1135 -446 1305 -511 38 -15
128 48 670 474 344 271 645 505 670 522 120 79 79 119 -281 270 -340 142 -258
160 -676 -145 -196 -143 -370 -266 -386 -272 -29 -11 -645 198 -677 229 -9 9
317 215 724 458 l740 443 746 -311 c410 -171 766 -319 791 -329 l46 -18 -70
-125 c-998 -1775 -3403 -2106 -4843 -666 -274 273 -592 717 -546 761 4 3 165
74 357 156 193 82 499 214 680 293 182 79 488 212 680 295 193 84 490 213 660
287 373 162 303 153 519 65z"/>
<path d="M3436 7933 c-642 -366 -1139 -960 -1409 -1683 -126 -339 -146 -341
748 51 404 177 767 337 805 355 l70 34 12 300 c26 626 21 1005 -14 1018 -48
18 -48 18 -212 -75z"/>
<path d="M5324 8136 c-36 -36 -35 -2323 1 -2350 14 -11 84 -43 155 -72 72 -28
472 -196 890 -373 418 -178 778 -320 800 -317 77 11 38 545 -68 937 -230 853
-730 1525 -1561 2097 -157 108 -179 116 -217 78z"/>
</g>
</svg>
