<?xml version="1.0" encoding="UTF-8" standalone="no"?>
<!-- Uploaded to: SVG Repo, www.svgrepo.com, Generator: SVG Repo Mixer Tools -->

<svg
   width="800px"
   height="800px"
   viewBox="0 0 48 48"
   data-name="Layer 1"
   id="Layer_1"
   version="1.1"
   sodipodi:docname="artificial-brain-computer-2-svgrepo-com.svg"
   inkscape:version="1.3.2 (091e20e, 2023-11-25)"
   xmlns:inkscape="http://www.inkscape.org/namespaces/inkscape"
   xmlns:sodipodi="http://sodipodi.sourceforge.net/DTD/sodipodi-0.dtd"
   xmlns="http://www.w3.org/2000/svg"
   xmlns:svg="http://www.w3.org/2000/svg">
  <sodipodi:namedview
     id="namedview25"
     pagecolor="#ffffff"
     bordercolor="#000000"
     borderopacity="0.25"
     inkscape:showpageshadow="2"
     inkscape:pageopacity="0.0"
     inkscape:pagecheckerboard="0"
     inkscape:deskcolor="#d1d1d1"
     inkscape:zoom="1.08125"
     inkscape:cx="399.53757"
     inkscape:cy="307.51445"
     inkscape:window-width="1392"
     inkscape:window-height="1212"
     inkscape:window-x="32"
     inkscape:window-y="25"
     inkscape:window-maximized="0"
     inkscape:current-layer="Layer_1" />
  <defs
     id="defs1">
    <style
       id="style1">
      .cls-1, .cls-3 {
        fill: none;
        stroke: #353535;
        stroke-width: 2px;
      }

      .cls-1 {
        stroke-linecap: round;
        stroke-linejoin: round;
      }

      .cls-2 {
        fill: #353535;
      }

      .cls-3 {
        stroke-miterlimit: 10;
      }
    </style>
  </defs>
  <title
     id="title1" />
  <path
     class="cls-1"
     d="M12.50016,29l-2.62921.0519a8.729,8.729,0,0,1-8.87079-8.7284v-.3018a8.3648,8.3648,0,0,1,1.90109-5.37l.1137-.1379A23.39639,23.39639,0,0,1,15.46249,6.67986"
     id="path1" />
  <path
     class="cls-1"
     d="M40.37144,38.114A8.00134,8.00134,0,0,1,25.00016,35"
     id="path2" />
  <path
     class="cls-1"
     d="M17.92875,25a4.92858,4.92858,0,0,1-4.92859-4.9286"
     id="path3" />
  <path
     class="cls-1"
     d="M20.00016,35l.42229.8446A33.885,33.885,0,0,1,23.76116,47"
     id="path4" />
  <path
     class="cls-1"
     d="M29.74645,47a33.87775,33.87775,0,0,0-1.034-5.253"
     id="path5" />
  <path
     class="cls-1"
     d="M16.92875,10A5.64548,5.64548,0,0,1,22.3291,6H23"
     id="path6" />
  <path
     class="cls-1"
     d="M27.7466,25h-9.5c-2.76141,0-5.5,2.10942-5.5,4.87082a5,5,0,0,0,5,5h9s1.70239,1.1349,3.29369,2.1957a10.74328,10.74328,0,0,0,5.96,1.8043A10.96518,10.96518,0,0,0,46.9997,28.12642L47,26.05472a15.27948,15.27948,0,0,0-.8732-5.093q-.244-.6906-.55234-1.35317"
     id="path7" />
  <circle
     class="cls-2"
     cx="16.1145"
     cy="12.97726"
     r="1"
     transform="translate(-4.40407 15.63712) rotate(-46.2312)"
     id="circle7" />
  <circle
     class="cls-2"
     cx="13"
     cy="17"
     r="1"
     id="circle8" />
  <path
     class="cls-1"
     d="M22.30369,28.05378A5.0014,5.0014,0,0,0,17.69662,25"
     id="path8" />
  <circle
     class="cls-2"
     cx="23"
     cy="30.97726"
     r="1"
     transform="translate(-15.28008 26.1579) rotate(-46.2312)"
     id="circle9" />
  <circle
     class="cls-2"
     cx="31"
     cy="25"
     r="1"
     id="circle10" />
  <path
     class="cls-1"
     d="M43,23.99994a4,4,0,0,1,4,4"
     id="path10" />
  <g
     id="g25">
    <g
       id="g13">
      <rect
         class="cls-3"
         height="12"
         width="12"
         x="31"
         y="4"
         id="rect10" />
      <line
         class="cls-3"
         x1="34"
         x2="36"
         y1="12"
         y2="12"
         id="line10" />
      <line
         class="cls-3"
         x1="38"
         x2="40"
         y1="12"
         y2="12"
         id="line11" />
      <line
         class="cls-3"
         x1="34"
         x2="36"
         y1="8"
         y2="8"
         id="line12" />
      <line
         class="cls-3"
         x1="38"
         x2="40"
         y1="8"
         y2="8"
         id="line13" />
    </g>
    <line
       class="cls-3"
       x1="37"
       x2="37"
       y1="16"
       y2="21"
       id="line14" />
    <line
       class="cls-3"
       x1="41"
       x2="41"
       y1="16"
       y2="21"
       id="line15" />
    <line
       class="cls-3"
       x1="31"
       x2="26"
       y1="6"
       y2="6"
       id="line16" />
    <line
       class="cls-3"
       x1="31"
       x2="26"
       y1="10"
       y2="10"
       id="line17" />
    <line
       class="cls-3"
       x1="31"
       x2="26"
       y1="14"
       y2="14"
       id="line18" />
    <line
       class="cls-3"
       x1="33"
       x2="33"
       y1="16"
       y2="21"
       id="line19" />
    <line
       class="cls-3"
       x1="43"
       x2="48"
       y1="6"
       y2="6"
       id="line20" />
    <line
       class="cls-3"
       x1="43"
       x2="48"
       y1="10"
       y2="10"
       id="line21" />
    <line
       class="cls-3"
       x1="43"
       x2="48"
       y1="14"
       y2="14"
       id="line22" />
    <line
       class="cls-3"
       x1="40.99999"
       x2="40.99993"
       y1="4"
       y2="-0.00004"
       id="line23" />
    <line
       class="cls-3"
       x1="36.99999"
       x2="36.99993"
       y1="4"
       y2="-0.00004"
       id="line24" />
    <line
       class="cls-3"
       x1="32.99999"
       x2="32.99993"
       y1="4"
       y2="-0.00004"
       id="line25" />
  </g>
  <path
     style="fill:#e0af00;stroke-width:0.924855;fill-opacity:1"
     d="M 534.10405,166.47399 V 83.699422 h 82.77456 82.77457 v 82.774568 82.77456 h -82.77457 -82.77456 z m 66.58959,33.2948 v -17.10983 h -17.10982 -17.10983 v 17.10983 17.10982 h 17.10983 17.10982 z m 66.5896,0 v -17.10983 h -17.10983 -17.10983 v 17.10983 17.10982 h 17.10983 17.10983 z m -66.5896,-66.5896 v -17.10983 h -17.10982 -17.10983 v 17.10983 17.10983 h 17.10983 17.10982 z m 66.5896,0 v -17.10983 h -17.10983 -17.10983 v 17.10983 17.10983 h 17.10983 17.10983 z"
     id="path25"
     transform="scale(0.06)" />
  <path
     style="fill:#e0af00;fill-opacity:1;stroke-width:0.924855"
     d="M 534.10405,166.47399 V 83.699422 h 82.77456 82.77457 v 82.774568 82.77456 h -82.77457 -82.77456 z m 66.58959,33.2948 v -17.10983 h -17.10982 -17.10983 v 17.10983 17.10982 h 17.10983 17.10982 z m 66.5896,0 v -17.10983 h -17.10983 -17.10983 v 17.10983 17.10982 h 17.10983 17.10983 z m -66.5896,-66.5896 v -17.10983 h -17.10982 -17.10983 v 17.10983 17.10983 h 17.10983 17.10982 z m 66.5896,0 v -17.10983 h -17.10983 -17.10983 v 17.10983 17.10983 h 17.10983 17.10983 z"
     id="path26"
     transform="scale(0.06)" />
  <path
     style="fill:#e0af00;fill-opacity:1;stroke-width:0.924855"
     d="m 533.62219,166.47399 c 6e-5,-45.78035 0.11276,-64.37324 0.25045,-41.31753 0.13769,23.05571 0.13765,60.51235 -1e-4,83.23699 -0.13775,22.72464 -0.25041,3.86089 -0.25035,-41.91946 z"
     id="path27"
     transform="scale(0.06)" />
  <path
     style="fill:#e0af00;fill-opacity:1;stroke-width:0.924855"
     d="M 534.10405,166.47399 V 83.699422 h 82.77456 82.77457 v 82.774568 82.77456 h -82.77457 -82.77456 z m 66.58959,33.2948 v -17.10983 h -17.10982 -17.10983 v 17.10983 17.10982 h 17.10983 17.10982 z m 66.5896,0 v -17.10983 h -17.10983 -17.10983 v 17.10983 17.10982 h 17.10983 17.10983 z m -66.5896,-66.5896 v -17.10983 h -17.10982 -17.10983 v 17.10983 17.10983 h 17.10983 17.10982 z m 66.5896,0 v -17.10983 h -17.10983 -17.10983 v 17.10983 17.10983 h 17.10983 17.10983 z"
     id="path28"
     transform="scale(0.06)" />
  <path
     style="fill:#e0af00;fill-opacity:1;stroke-width:0.924855"
     d="M 534.10405,166.47399 V 83.699422 h 82.77456 82.77457 v 82.774568 82.77456 h -82.77457 -82.77456 z m 66.58959,33.2948 v -17.10983 h -17.10982 -17.10983 v 17.10983 17.10982 h 17.10983 17.10982 z m 66.5896,0 v -17.10983 h -17.10983 -17.10983 v 17.10983 17.10982 h 17.10983 17.10983 z m -66.5896,-66.5896 v -17.10983 h -17.10982 -17.10983 v 17.10983 17.10983 h 17.10983 17.10982 z m 66.5896,0 v -17.10983 h -17.10983 -17.10983 v 17.10983 17.10983 h 17.10983 17.10983 z"
     id="path29"
     transform="scale(0.06)" />
  <path
     style="fill:#e0af00;fill-opacity:1;stroke-width:0.924855"
     d="M 534.10405,166.47399 V 83.699422 h 82.77456 82.77457 v 82.774568 82.77456 h -82.77457 -82.77456 z m 66.58959,33.2948 v -17.10983 h -17.10982 -17.10983 v 17.10983 17.10982 h 17.10983 17.10982 z m 66.5896,0 v -17.10983 h -17.10983 -17.10983 v 17.10983 17.10982 h 17.10983 17.10983 z m -66.5896,-66.5896 v -17.10983 h -17.10982 -17.10983 v 17.10983 17.10983 h 17.10983 17.10982 z m 66.5896,0 v -17.10983 h -17.10983 -17.10983 v 17.10983 17.10983 h 17.10983 17.10983 z"
     id="path30"
     transform="scale(0.06)" />
  <path
     style="fill:#dcb81e;fill-opacity:1;stroke-width:0.924855"
     d="M 534.10405,166.47399 V 83.699422 h 82.77456 82.77457 v 82.774568 82.77456 h -82.77457 -82.77456 z m 66.58959,33.2948 v -17.10983 h -17.10982 -17.10983 v 17.10983 17.10982 h 17.10983 17.10982 z m 66.5896,0 v -17.10983 h -17.10983 -17.10983 v 17.10983 17.10982 h 17.10983 17.10983 z m -66.5896,-66.5896 v -17.10983 h -17.10982 -17.10983 v 17.10983 17.10983 h 17.10983 17.10982 z m 66.5896,0 v -17.10983 h -17.10983 -17.10983 v 17.10983 17.10983 h 17.10983 17.10983 z"
     id="path31"
     transform="scale(0.06)" />
  <path
     style="fill:#ffff00;fill-opacity:1;stroke-width:0.924855"
     d="m 567.39884,133.17919 v -16.18497 h 16.18498 16.18497 v 16.18497 16.18497 h -16.18497 -16.18498 z"
     id="path32"
     transform="scale(0.06)" />
  <path
     style="fill:#00ff66;fill-opacity:1;stroke-width:0.0554913"
     d="M 38.011561,7.9907514 V 7.0196532 h 0.971098 0.971098 v 0.9710982 0.9710982 h -0.971098 -0.971098 z"
     id="path33" />
  <path
     style="fill:#ff5555;fill-opacity:1;stroke-width:0.924855"
     d="m 566.93642,199.76879 v -16.18497 h 16.18497 16.18497 v 16.18497 16.18497 h -16.18497 -16.18497 z"
     id="path34"
     transform="scale(0.06)" />
  <path
     style="fill:#e580ff;fill-opacity:1;stroke-width:0.924855"
     d="m 633.52601,199.76879 v -16.18497 h 16.18497 16.18497 v 16.18497 16.18497 h -16.18497 -16.18497 z"
     id="path35"
     transform="scale(0.06)" />
  <path
     style="fill:#e580ff;fill-opacity:1;stroke-width:0.924855"
     d=""
     id="path36"
     transform="scale(0.06)" />
  <path
     style="fill:#f6d5ff;fill-opacity:1;stroke-width:0.924855"
     d="m 388.81024,797.8271 c -3.55598,-1.6635 -6.75895,-5.10075 -8.01844,-8.60492 -0.30231,-0.84109 -1.44444,-7.70815 -2.53808,-15.26012 -8.71545,-60.18358 -26.19311,-116.42432 -52.768,-169.80021 l -3.10816,-6.24277 -12.51826,-7.8e-4 c -31.66315,-0.002 -49.73523,-4.44809 -68.64695,-16.8887 -15.56545,-10.23933 -26.81082,-23.05976 -34.96106,-39.85779 -5.35695,-11.04095 -7.82802,-19.5009 -9.41851,-32.24521 l -1.16017,-9.29624 -18.06752,0.63772 C 142.16611,501.51895 118.93971,497.15816 91.8224,484.16225 53.21008,465.65738 23.397022,432.13325 9.3660412,391.44188 -4.7445968,350.51949 -2.342073,303.13196 15.759629,265.33435 34.486768,226.23078 86.311186,175.37654 141.50289,141.94506 c 31.46599,-19.06001 74.50499,-37.13224 107.98386,-45.342815 9.92651,-2.43444 13.71344,-1.859223 19.14263,2.907668 5.90116,5.181287 6.8305,15.252147 1.99277,21.594747 -3.16834,4.15391 -4.54202,4.85663 -14.7961,7.56912 -29.37515,7.77054 -62.40863,21.22594 -88.88963,36.20708 -11.53558,6.52603 -37.92559,24.29862 -47.63006,32.07687 -28.874199,23.14304 -56.643336,52.5985 -69.14604,73.34503 -5.744535,9.53226 -11.202271,23.13239 -14.190776,35.36198 -1.915152,7.8372 -2.150564,11.03358 -2.179679,29.59538 -0.02615,16.67212 0.300471,22.37216 1.642867,28.67052 11.365059,53.32348 53.325414,93.59638 106.505008,102.22184 5.88222,0.95406 15.89436,1.35564 33.86482,1.35825 l 25.51355,0.004 3.89908,-7.86866 c 7.13096,-14.39087 18.78712,-27.85819 32.64416,-37.71646 l 7.10789,-5.05676 -4.98279,-3.43177 c -6.17755,-4.25465 -17.42792,-15.93209 -22.37388,-23.22323 -11.07052,-16.31971 -17.45162,-36.87855 -16.77174,-54.0357 0.28297,-7.14111 0.60514,-8.38314 2.98251,-11.49837 4.90018,-6.42104 14.14616,-8.04742 21.4421,-3.77171 5.29379,3.10236 7.46041,7.92692 8.10493,18.04775 1.02916,16.16094 7.44395,29.96312 19.56769,42.10225 8.58828,8.59919 18.3126,14.19981 29.72127,17.11765 6.83061,1.74697 10.61695,1.82077 93.67558,1.82572 60.29929,0.004 87.67319,0.31496 90.23583,1.02641 4.82889,1.34061 10.20006,6.78597 11.51678,11.67586 2.24583,8.34038 -3.11191,17.45491 -11.50232,19.56764 -2.68554,0.67624 -19.80374,1.01973 -50.81842,1.01973 h -46.76872 l 4.10259,5.03689 c 5.37716,6.60169 11.50074,17.16373 13.72098,23.66615 1.50081,4.39541 1.61284,5.80675 0.72319,9.1107 -2.40425,8.92869 -11.59111,14.59023 -19.72675,12.15689 -6.11183,-1.82802 -8.312,-3.96219 -12.58274,-12.20531 -9.72648,-18.77346 -24.65254,-30.96239 -43.96311,-35.9012 -8.64196,-2.21024 -13.88879,-2.33355 -22.47145,-0.52813 -24.88724,5.23519 -46.31248,21.40307 -55.37816,41.78938 -3.2492,7.30656 -5.1948,18.69802 -4.48147,26.23879 2.63472,27.8518 19.62841,49.51127 46.20537,58.8915 l 7.39884,2.61139 84.24825,0.46243 84.24825,0.46243 33.67083,22.381 c 37.00983,24.60044 49.06743,31.15287 67.56538,36.71683 18.46134,5.55294 25.62527,6.52141 48.41758,6.54545 17.69512,0.0187 21.73294,-0.25914 30.98266,-2.13155 37.7805,-7.64789 71.93647,-27.55924 95.46289,-55.65046 24.35645,-29.0823 37.76352,-62.87979 39.25607,-98.95954 0.44212,-10.68763 0.25335,-14.57926 -0.92979,-19.16733 -4.9924,-19.35989 -21.46755,-34.71783 -40.08263,-37.36453 -12.92781,-1.83807 -16.14402,-2.62324 -18.57354,-4.5343 -10.86854,-8.54918 -7.25037,-25.40511 6.14295,-28.61811 10.24781,-2.45842 31.7031,2.58993 45.40547,10.68373 2.81077,1.66028 5.25077,2.63017 5.42223,2.15532 0.61084,-1.69173 -4.55764,-23.99131 -8.20456,-35.39882 -2.03968,-6.38009 -5.57219,-15.96312 -7.85004,-21.29561 -6.22173,-14.56526 -5.43624,-21.32221 3.15146,-27.10947 5.77003,-3.88843 13.47034,-3.58671 18.97531,0.74349 6.26356,4.92693 18.51311,38.28298 24.0798,65.57037 3.84377,18.84179 5.16623,32.31872 5.76291,58.72832 1.18474,52.43849 -4.10777,81.40043 -21.11267,115.53392 -18.48055,37.0955 -48.23012,67.65171 -84.90404,87.20612 -6.56227,3.49899 -7.07693,4.01413 -10.51742,10.52729 -15.7336,29.78522 -39.82467,53.01492 -69.51908,67.03345 -31.22009,14.7388 -68.69593,18.15256 -101.73411,9.2672 -4.57803,-1.23122 -8.44916,-2.11484 -8.6025,-1.96359 -0.15334,0.15125 0.77835,5.83739 2.07041,12.63588 3.37688,17.76815 6.21755,37.37711 6.346,43.80598 0.0729,3.646 -0.43097,6.56359 -1.46904,8.5071 -4.07114,7.62212 -14.06984,10.7623 -21.76624,6.83588 -6.19505,-3.16047 -8.154,-7.1256 -9.86474,-19.96726 -2.26725,-17.01904 -5.7665,-36.27102 -9.83399,-54.10405 -4.1246,-18.08341 -2.59172,-15.55413 -16.45223,-27.14651 -25.46877,-21.30105 -44.29913,-54.71157 -49.72587,-88.22809 l -1.68445,-10.40352 -20.97914,-10e-4 -20.97914,-10e-4 5.03094,11.08102 c 23.13313,50.95253 40.07068,109.96587 47.1416,164.24946 1.54612,11.86968 1.54096,12.17108 -0.27895,16.28529 -3.80895,8.61077 -13.54349,12.27161 -22.04993,8.29225 z m 173.22158,-98.24095 c 19.06927,-2.12635 36.65285,-8.42039 52.27392,-18.71142 9.90642,-6.52627 24.86102,-20.52613 21.06998,-19.72482 -14.64162,3.09478 -45.25271,3.63464 -62.42774,1.10098 -21.57421,-3.18264 -40.90972,-9.21368 -60.11561,-18.751 -5.59538,-2.77857 -23.92176,-14.17094 -40.7253,-25.31638 -27.61858,-18.31883 -30.924,-20.26443 -34.42775,-20.26443 -3.86289,0 -3.87411,0.01 -3.3557,3.00578 6.78133,39.18707 29.64467,70.04848 64.86389,87.55464 11.95289,5.94133 25.20624,9.62358 41.39052,11.49975 5.92534,0.6869 12.91724,0.55878 21.45379,-0.3931 z"
     id="path37"
     transform="scale(0.06)" />
  <path
     style="fill:#f6d5ff;fill-opacity:1;stroke-width:0.924855"
     d="m 275.60741,181.61993 c -8.33164,-3.32228 -11.54484,-12.85062 -7.91455,-23.46964 12.38561,-36.22935 43.78645,-63.844028 82.15658,-72.250532 7.36458,-1.613505 31.81851,-2.808987 37.11887,-1.814634 4.06461,0.762525 9.61138,5.423659 11.31975,9.51234 3.0239,7.237246 0.0961,16.318896 -6.46938,20.066956 -3.42106,1.95301 -5.36111,2.24987 -17.71463,2.71068 -9.3339,0.34818 -16.17057,1.11481 -20.89563,2.34314 -25.11285,6.52833 -44.29003,23.83648 -54.1016,48.82878 -3.29541,8.39416 -5.58038,11.61064 -9.81234,13.81253 -2.85284,1.48433 -10.26405,1.62532 -13.68707,0.26038 z"
     id="path38"
     transform="scale(0.06)" />
  <path
     style="fill:#f6d5ff;fill-opacity:1;stroke-width:0.924855"
     d="m 262.65896,231.615 c -2.98973,-1.25377 -7.21105,-5.2747 -8.8687,-8.44768 -1.99134,-3.81175 -1.61684,-10.77058 0.81028,-15.05598 5.72187,-10.10274 20.76096,-10.56052 27.42512,-0.83481 6.92305,10.10353 0.0248,24.25554 -12.18997,25.0083 -2.67553,0.16488 -5.90505,-0.13654 -7.17673,-0.66983 z"
     id="path39"
     transform="scale(0.06)" />
  <path
     style="fill:#f6d5ff;fill-opacity:1;stroke-width:0.924855"
     d="m 213.3505,299.14368 c -3.92964,-0.67506 -7.44956,-2.98189 -10.22766,-6.70285 -2.46963,-3.3078 -3.15761,-12.28978 -1.22492,-15.99196 6.49837,-12.44799 23.75632,-12.44198 29.41183,0.0102 5.5573,12.23596 -4.53988,24.98984 -17.95925,22.68458 z"
     id="path40"
     transform="scale(0.06)" />
  <path
     style="fill:#f6d5ff;fill-opacity:1;stroke-width:0.924855"
     d="m 512.17698,432.38066 c -6.66164,-2.00811 -11.78954,-8.85134 -11.78954,-15.73326 0,-10.34874 10.32819,-18.40935 20.18676,-15.75471 16.02085,4.31397 16.25329,27.01198 0.32193,31.43655 -3.94148,1.09466 -5.23308,1.10228 -8.71915,0.0514 z"
     id="path41"
     transform="scale(0.06)" />
  <path
     style="fill:#f6d5ff;fill-opacity:1;stroke-width:0.924855"
     d="m 377.34104,531.58702 c -8.15297,-3.06354 -12.39827,-13.48923 -8.90102,-21.85931 0.69981,-1.67488 2.85883,-4.35293 4.79782,-5.95121 6.16221,-5.07942 14.47889,-4.86563 20.89985,0.53725 11.14661,9.37925 3.9222,28.03619 -10.78509,27.85236 -2.54335,-0.0318 -5.24855,-0.29238 -6.01156,-0.57909 z"
     id="path42"
     transform="scale(0.06)" />
</svg>
