<?xml version="1.0" encoding="UTF-8" standalone="no"?>
<!-- Uploaded to: SVG Repo, www.svgrepo.com, Generator: SVG Repo Mixer Tools -->

<svg
   width="800px"
   height="800px"
   viewBox="0 0 48 48"
   data-name="Layer 1"
   id="Layer_1"
   version="1.1"
   sodipodi:docname="artificial-brain-computer-2-svgrepo-com.svg"
   inkscape:version="1.3.2 (091e20e, 2023-11-25)"
   xmlns:inkscape="http://www.inkscape.org/namespaces/inkscape"
   xmlns:sodipodi="http://sodipodi.sourceforge.net/DTD/sodipodi-0.dtd"
   xmlns="http://www.w3.org/2000/svg"
   xmlns:svg="http://www.w3.org/2000/svg">
  <sodipodi:namedview
     id="namedview25"
     pagecolor="#ffffff"
     bordercolor="#000000"
     borderopacity="0.25"
     inkscape:showpageshadow="2"
     inkscape:pageopacity="0.0"
     inkscape:pagecheckerboard="0"
     inkscape:deskcolor="#d1d1d1"
     inkscape:zoom="1.08125"
     inkscape:cx="399.53757"
     inkscape:cy="307.51445"
     inkscape:window-width="1392"
     inkscape:window-height="1212"
     inkscape:window-x="32"
     inkscape:window-y="25"
     inkscape:window-maximized="0"
     inkscape:current-layer="Layer_1" />
  <defs
     id="defs1">
    <style
       id="style1">
      .cls-1, .cls-3 {
        fill: none;
        stroke: #353535;
        stroke-width: 2px;
      }

      .cls-1 {
        stroke-linecap: round;
        stroke-linejoin: round;
      }

      .cls-2 {
        fill: #353535;
      }

      .cls-3 {
        stroke-miterlimit: 10;
      }
    </style>
  </defs>
  <title
     id="title1" />
  <path
     class="cls-1"
     d="M12.50016,29l-2.62921.0519a8.729,8.729,0,0,1-8.87079-8.7284v-.3018a8.3648,8.3648,0,0,1,1.90109-5.37l.1137-.1379A23.39639,23.39639,0,0,1,15.46249,6.67986"
     id="path1" />
  <path
     class="cls-1"
     d="M40.37144,38.114A8.00134,8.00134,0,0,1,25.00016,35"
     id="path2" />
  <path
     class="cls-1"
     d="M17.92875,25a4.92858,4.92858,0,0,1-4.92859-4.9286"
     id="path3" />
  <path
     class="cls-1"
     d="M20.00016,35l.42229.8446A33.885,33.885,0,0,1,23.76116,47"
     id="path4" />
  <path
     class="cls-1"
     d="M29.74645,47a33.87775,33.87775,0,0,0-1.034-5.253"
     id="path5" />
  <path
     class="cls-1"
     d="M16.92875,10A5.64548,5.64548,0,0,1,22.3291,6H23"
     id="path6" />
  <path
     class="cls-1"
     d="M27.7466,25h-9.5c-2.76141,0-5.5,2.10942-5.5,4.87082a5,5,0,0,0,5,5h9s1.70239,1.1349,3.29369,2.1957a10.74328,10.74328,0,0,0,5.96,1.8043A10.96518,10.96518,0,0,0,46.9997,28.12642L47,26.05472a15.27948,15.27948,0,0,0-.8732-5.093q-.244-.6906-.55234-1.35317"
     id="path7" />
  <circle
     class="cls-2"
     cx="16.1145"
     cy="12.97726"
     r="1"
     transform="translate(-4.40407 15.63712) rotate(-46.2312)"
     id="circle7" />
  <circle
     class="cls-2"
     cx="13"
     cy="17"
     r="1"
     id="circle8" />
  <path
     class="cls-1"
     d="M22.30369,28.05378A5.0014,5.0014,0,0,0,17.69662,25"
     id="path8" />
  <circle
     class="cls-2"
     cx="23"
     cy="30.97726"
     r="1"
     transform="translate(-15.28008 26.1579) rotate(-46.2312)"
     id="circle9" />
  <circle
     class="cls-2"
     cx="31"
     cy="25"
     r="1"
     id="circle10" />
  <path
     class="cls-1"
     d="M43,23.99994a4,4,0,0,1,4,4"
     id="path10" />
  <g
     id="g25">
    <g
       id="g13">
      <rect
         class="cls-3"
         height="12"
         width="12"
         x="31"
         y="4"
         id="rect10" />
      <line
         class="cls-3"
         x1="34"
         x2="36"
         y1="12"
         y2="12"
         id="line10" />
      <line
         class="cls-3"
         x1="38"
         x2="40"
         y1="12"
         y2="12"
         id="line11" />
      <line
         class="cls-3"
         x1="34"
         x2="36"
         y1="8"
         y2="8"
         id="line12" />
      <line
         class="cls-3"
         x1="38"
         x2="40"
         y1="8"
         y2="8"
         id="line13" />
    </g>
    <line
       class="cls-3"
       x1="37"
       x2="37"
       y1="16"
       y2="21"
       id="line14" />
    <line
       class="cls-3"
       x1="41"
       x2="41"
       y1="16"
       y2="21"
       id="line15" />
    <line
       class="cls-3"
       x1="31"
       x2="26"
       y1="6"
       y2="6"
       id="line16" />
    <line
       class="cls-3"
       x1="31"
       x2="26"
       y1="10"
       y2="10"
       id="line17" />
    <line
       class="cls-3"
       x1="31"
       x2="26"
       y1="14"
       y2="14"
       id="line18" />
    <line
       class="cls-3"
       x1="33"
       x2="33"
       y1="16"
       y2="21"
       id="line19" />
    <line
       class="cls-3"
       x1="43"
       x2="48"
       y1="6"
       y2="6"
       id="line20" />
    <line
       class="cls-3"
       x1="43"
       x2="48"
       y1="10"
       y2="10"
       id="line21" />
    <line
       class="cls-3"
       x1="43"
       x2="48"
       y1="14"
       y2="14"
       id="line22" />
    <line
       class="cls-3"
       x1="40.99999"
       x2="40.99993"
       y1="4"
       y2="-0.00004"
       id="line23" />
    <line
       class="cls-3"
       x1="36.99999"
       x2="36.99993"
       y1="4"
       y2="-0.00004"
       id="line24" />
    <line
       class="cls-3"
       x1="32.99999"
       x2="32.99993"
       y1="4"
       y2="-0.00004"
       id="line25" />
  </g>
  <path
     style="fill:#e0af00;stroke-width:0.924855;fill-opacity:1"
     d="M 534.10405,166.47399 V 83.699422 h 82.77456 82.77457 v 82.774568 82.77456 h -82.77457 -82.77456 z m 66.58959,33.2948 v -17.10983 h -17.10982 -17.10983 v 17.10983 17.10982 h 17.10983 17.10982 z m 66.5896,0 v -17.10983 h -17.10983 -17.10983 v 17.10983 17.10982 h 17.10983 17.10983 z m -66.5896,-66.5896 v -17.10983 h -17.10982 -17.10983 v 17.10983 17.10983 h 17.10983 17.10982 z m 66.5896,0 v -17.10983 h -17.10983 -17.10983 v 17.10983 17.10983 h 17.10983 17.10983 z"
     id="path25"
     transform="scale(0.06)" />
  <path
     style="fill:#e0af00;fill-opacity:1;stroke-width:0.924855"
     d="M 534.10405,166.47399 V 83.699422 h 82.77456 82.77457 v 82.774568 82.77456 h -82.77457 -82.77456 z m 66.58959,33.2948 v -17.10983 h -17.10982 -17.10983 v 17.10983 17.10982 h 17.10983 17.10982 z m 66.5896,0 v -17.10983 h -17.10983 -17.10983 v 17.10983 17.10982 h 17.10983 17.10983 z m -66.5896,-66.5896 v -17.10983 h -17.10982 -17.10983 v 17.10983 17.10983 h 17.10983 17.10982 z m 66.5896,0 v -17.10983 h -17.10983 -17.10983 v 17.10983 17.10983 h 17.10983 17.10983 z"
     id="path26"
     transform="scale(0.06)" />
  <path
     style="fill:#e0af00;fill-opacity:1;stroke-width:0.924855"
     d="m 533.62219,166.47399 c 6e-5,-45.78035 0.11276,-64.37324 0.25045,-41.31753 0.13769,23.05571 0.13765,60.51235 -1e-4,83.23699 -0.13775,22.72464 -0.25041,3.86089 -0.25035,-41.91946 z"
     id="path27"
     transform="scale(0.06)" />
  <path
     style="fill:#e0af00;fill-opacity:1;stroke-width:0.924855"
     d="M 534.10405,166.47399 V 83.699422 h 82.77456 82.77457 v 82.774568 82.77456 h -82.77457 -82.77456 z m 66.58959,33.2948 v -17.10983 h -17.10982 -17.10983 v 17.10983 17.10982 h 17.10983 17.10982 z m 66.5896,0 v -17.10983 h -17.10983 -17.10983 v 17.10983 17.10982 h 17.10983 17.10983 z m -66.5896,-66.5896 v -17.10983 h -17.10982 -17.10983 v 17.10983 17.10983 h 17.10983 17.10982 z m 66.5896,0 v -17.10983 h -17.10983 -17.10983 v 17.10983 17.10983 h 17.10983 17.10983 z"
     id="path28"
     transform="scale(0.06)" />
  <path
     style="fill:#e0af00;fill-opacity:1;stroke-width:0.924855"
     d="M 534.10405,166.47399 V 83.699422 h 82.77456 82.77457 v 82.774568 82.77456 h -82.77457 -82.77456 z m 66.58959,33.2948 v -17.10983 h -17.10982 -17.10983 v 17.10983 17.10982 h 17.10983 17.10982 z m 66.5896,0 v -17.10983 h -17.10983 -17.10983 v 17.10983 17.10982 h 17.10983 17.10983 z m -66.5896,-66.5896 v -17.10983 h -17.10982 -17.10983 v 17.10983 17.10983 h 17.10983 17.10982 z m 66.5896,0 v -17.10983 h -17.10983 -17.10983 v 17.10983 17.10983 h 17.10983 17.10983 z"
     id="path29"
     transform="scale(0.06)" />
  <path
     style="fill:#e0af00;fill-opacity:1;stroke-width:0.924855"
     d="M 534.10405,166.47399 V 83.699422 h 82.77456 82.77457 v 82.774568 82.77456 h -82.77457 -82.77456 z m 66.58959,33.2948 v -17.10983 h -17.10982 -17.10983 v 17.10983 17.10982 h 17.10983 17.10982 z m 66.5896,0 v -17.10983 h -17.10983 -17.10983 v 17.10983 17.10982 h 17.10983 17.10983 z m -66.5896,-66.5896 v -17.10983 h -17.10982 -17.10983 v 17.10983 17.10983 h 17.10983 17.10982 z m 66.5896,0 v -17.10983 h -17.10983 -17.10983 v 17.10983 17.10983 h 17.10983 17.10983 z"
     id="path30"
     transform="scale(0.06)" />
  <path
     style="fill:#dcb81e;fill-opacity:1;stroke-width:0.924855"
     d="M 534.10405,166.47399 V 83.699422 h 82.77456 82.77457 v 82.774568 82.77456 h -82.77457 -82.77456 z m 66.58959,33.2948 v -17.10983 h -17.10982 -17.10983 v 17.10983 17.10982 h 17.10983 17.10982 z m 66.5896,0 v -17.10983 h -17.10983 -17.10983 v 17.10983 17.10982 h 17.10983 17.10983 z m -66.5896,-66.5896 v -17.10983 h -17.10982 -17.10983 v 17.10983 17.10983 h 17.10983 17.10982 z m 66.5896,0 v -17.10983 h -17.10983 -17.10983 v 17.10983 17.10983 h 17.10983 17.10983 z"
     id="path31"
     transform="scale(0.06)" />
  <path
     style="fill:#ffff00;fill-opacity:1;stroke-width:0.924855"
     d="m 567.39884,133.17919 v -16.18497 h 16.18498 16.18497 v 16.18497 16.18497 h -16.18497 -16.18498 z"
     id="path32"
     transform="scale(0.06)" />
  <path
     style="fill:#00ff66;fill-opacity:1;stroke-width:0.0554913"
     d="M 38.011561,7.9907514 V 7.0196532 h 0.971098 0.971098 v 0.9710982 0.9710982 h -0.971098 -0.971098 z"
     id="path33" />
  <path
     style="fill:#ff5555;fill-opacity:1;stroke-width:0.924855"
     d="m 566.93642,199.76879 v -16.18497 h 16.18497 16.18497 v 16.18497 16.18497 h -16.18497 -16.18497 z"
     id="path34"
     transform="scale(0.06)" />
  <path
     style="fill:#cd87de;fill-opacity:1;stroke-width:0.924855"
     d="m 633.52601,199.76879 v -16.18497 h 16.18497 16.18497 v 16.18497 16.18497 h -16.18497 -16.18497 z"
     id="path35"
     transform="scale(0.06)" />
</svg>
