<?xml version="1.0" standalone="no"?>
<!DOCTYPE svg PUBLIC "-//W3C//DTD SVG 20010904//EN"
 "http://www.w3.org/TR/2001/REC-SVG-20010904/DTD/svg10.dtd">
<svg version="1.0" xmlns="http://www.w3.org/2000/svg"
 width="300.000000pt" height="301.000000pt" viewBox="0 0 300.000000 301.000000"
 preserveAspectRatio="xMidYMid meet">
<metadata>
Created by potrace 1.10, written by Peter Selinger 2001-2011
</metadata>
<g transform="translate(0.000000,301.000000) scale(0.050000,-0.050000)"
fill="#000000" stroke="none">
<path d="M0 3010 l0 -3010 3000 0 3000 0 0 3010 0 3010 -3000 0 -3000 0 0
-3010z m1992 1832 c244 -149 288 -958 66 -1211 -166 -189 -418 -113 -511 153
-60 172 -54 729 9 866 100 216 272 292 436 192z m1711 6 c9 -6 17 -67 17 -137
l0 -126 -88 32 c-190 68 -271 -54 -272 -409 0 -286 39 -407 141 -434 36 -10
39 1 39 148 l0 158 -60 0 c-59 0 -60 1 -60 110 l0 110 170 0 170 0 0 -357 0
-357 -77 -23 c-367 -110 -573 119 -573 637 0 369 78 549 280 644 76 35 258 38
313 4z m665 -13 c5 -25 15 -76 21 -115 7 -38 57 -307 112 -597 122 -649 124
-583 -19 -583 l-117 0 -25 131 -25 131 -92 -6 -93 -6 -18 -125 -18 -125 -117
0 c-80 0 -117 8 -117 25 0 14 23 147 51 295 28 149 72 387 99 530 27 143 57
304 67 358 23 117 42 131 178 132 92 0 105 -5 113 -45z m-3489 -175 c37 -110
73 -200 81 -200 8 0 45 90 82 200 l67 200 126 0 126 0 -6 -655 -5 -655 -115
-6 -114 -6 -6 356 -5 356 -69 -205 c-83 -249 -80 -248 -151 -24 -82 256 -90
244 -90 -141 l0 -342 -115 6 -115 6 -5 655 -6 655 127 0 127 0 66 -200z m1925
155 c206 -116 250 -562 70 -712 -25 -20 -17 -61 56 -288 l86 -265 -111 -6
c-153 -8 -148 -14 -224 224 -87 267 -101 266 -101 -8 l0 -220 -120 0 -120 0 0
660 0 660 192 0 c162 0 205 -7 272 -45z m2216 -200 c118 -341 119 -341 119
-30 l1 275 120 0 120 0 0 -660 0 -660 -108 0 -107 0 -108 305 -107 305 -6
-305 -5 -305 -120 0 -119 0 0 660 0 660 117 0 118 0 85 -245z m-1980 -1295
c63 -34 71 -144 18 -249 -35 -71 -40 -97 -22 -115 19 -19 24 -18 24 0 0 13 23
24 50 24 53 0 66 -61 32 -150 -10 -25 -6 -56 12 -83 25 -39 24 -46 -17 -75
-33 -23 -49 -25 -60 -8 -11 18 -26 18 -67 0 -178 -81 -319 158 -189 323 32 41
36 60 20 91 -83 155 53 320 199 242z m-1067 -893 c306 -145 306 -1149 0 -1294
-296 -141 -463 93 -463 647 0 554 167 788 463 647z m1702 1 c40 -8 76 -268 37
-268 -4 0 -41 14 -82 31 -179 75 -270 -60 -270 -402 0 -257 22 -352 93 -408
80 -63 87 -53 87 119 l0 160 -60 0 c-59 0 -60 1 -60 110 l0 110 170 0 170 0 0
-359 0 -360 -110 -32 c-396 -115 -665 374 -520 942 77 298 256 416 545 357z
m-2798 -188 c84 -256 84 -256 163 -9 l68 209 126 0 126 0 0 -660 0 -660 -120
0 -119 0 -6 355 -5 355 -66 -205 c-79 -247 -88 -250 -154 -42 -83 265 -89 257
-89 -118 l-1 -345 -120 0 -120 0 0 660 0 660 126 0 125 0 66 -200z m1893 162
c237 -109 297 -498 110 -712 -33 -38 -31 -51 49 -300 l83 -260 -109 -6 c-150
-9 -146 -13 -222 224 -87 267 -101 266 -101 -8 l0 -220 -120 0 -120 0 0 660 0
660 175 0 c127 -1 197 -11 255 -38z m1599 -7 c9 -44 53 -272 159 -835 28 -148
57 -308 64 -355 l13 -85 -120 0 -120 0 -25 131 -25 131 -92 -6 -93 -6 -18
-125 -18 -125 -117 0 c-130 0 -131 1 -98 146 11 46 56 287 102 534 45 248 91
493 102 545 l20 95 128 0 c117 0 129 -4 138 -45z m666 -240 l103 -285 1 285 1
285 120 0 120 0 0 -660 0 -660 -107 0 -108 0 -31 85 c-17 47 -61 171 -96 275
-91 269 -98 264 -98 -66 l0 -294 -120 0 -120 0 0 660 0 660 116 0 116 0 103
-285z"/>
<path d="M1802 4633 c-106 -128 -70 -847 44 -869 101 -20 142 748 46 854 -45
49 -59 52 -90 15z"/>
<path d="M4215 4290 c-46 -151 -40 -250 14 -250 50 0 52 4 40 75 -34 193 -41
217 -54 175z"/>
<path d="M2588 4612 c-31 -81 3 -382 42 -375 143 23 151 352 10 389 -25 6 -46
0 -52 -14z"/>
<path d="M2930 3220 c-16 -26 7 -100 31 -100 11 0 19 27 19 60 0 59 -26 79
-50 40z"/>
<path d="M2900 2851 c0 -73 24 -101 71 -83 25 9 24 21 -5 81 -42 90 -66 90
-66 2z"/>
<path d="M1777 2155 c-75 -180 -24 -815 66 -815 94 0 146 624 68 811 -38 90
-96 92 -134 4z"/>
<path d="M2580 2000 c0 -222 17 -245 111 -151 101 101 47 350 -76 351 -31 0
-35 -23 -35 -200z"/>
<path d="M4215 1870 c-47 -151 -41 -270 14 -270 52 0 53 3 41 85 -27 178 -42
228 -55 185z"/>
</g>
</svg>
