<?xml version="1.0" encoding="UTF-8" standalone="no"?>
<!-- Uploaded to: SVG Repo, www.svgrepo.com, Transformed by: SVG Repo Mixer Tools -->

<svg
   fill="red"
   version="1.1"
   id="Capa_1"
   width="199px"
   height="199px"
   viewBox="-0.91 -0.91 47.13 47.13"
   xml:space="preserve"
   stroke="red"
   sodipodi:docname="spoiler.svg"
   inkscape:version="1.3.2 (091e20e, 2023-11-25)"
   xmlns:inkscape="http://www.inkscape.org/namespaces/inkscape"
   xmlns:sodipodi="http://sodipodi.sourceforge.net/DTD/sodipodi-0.dtd"
   xmlns="http://www.w3.org/2000/svg"
   xmlns:svg="http://www.w3.org/2000/svg"><defs
   id="defs1" /><sodipodi:namedview
   id="namedview1"
   pagecolor="#ffffff"
   bordercolor="#000000"
   borderopacity="0.25"
   inkscape:showpageshadow="2"
   inkscape:pageopacity="0.0"
   inkscape:pagecheckerboard="0"
   inkscape:deskcolor="#d1d1d1"
   inkscape:zoom="5.2311558"
   inkscape:cx="99.404419"
   inkscape:cy="99.5"
   inkscape:window-width="1392"
   inkscape:window-height="1212"
   inkscape:window-x="32"
   inkscape:window-y="25"
   inkscape:window-maximized="0"
   inkscape:current-layer="Capa_1" />

<g
   id="SVGRepo_bgCarrier"
   stroke-width="0" />

<g
   id="SVGRepo_tracerCarrier"
   stroke-linecap="round"
   stroke-linejoin="round" />

<g
   id="SVGRepo_iconCarrier"> <g
   id="g1"> <path
   d="M22.675,0.02c-0.006,0-0.014,0.001-0.02,0.001c-0.007,0-0.013-0.001-0.02-0.001C10.135,0.02,0,10.154,0,22.656 c0,12.5,10.135,22.635,22.635,22.635c0.007,0,0.013,0,0.02,0c0.006,0,0.014,0,0.02,0c12.5,0,22.635-10.135,22.635-22.635 C45.311,10.154,35.176,0.02,22.675,0.02z M22.675,38.811c-0.006,0-0.014-0.001-0.02-0.001c-0.007,0-0.013,0.001-0.02,0.001 c-2.046,0-3.705-1.658-3.705-3.705c0-2.045,1.659-3.703,3.705-3.703c0.007,0,0.013,0,0.02,0c0.006,0,0.014,0,0.02,0 c2.045,0,3.706,1.658,3.706,3.703C26.381,37.152,24.723,38.811,22.675,38.811z M27.988,10.578 c-0.242,3.697-1.932,14.692-1.932,14.692c0,1.854-1.519,3.356-3.373,3.356c-0.01,0-0.02,0-0.029,0c-0.009,0-0.02,0-0.029,0 c-1.853,0-3.372-1.504-3.372-3.356c0,0-1.689-10.995-1.931-14.692C17.202,8.727,18.62,5.29,22.626,5.29 c0.01,0,0.02,0.001,0.029,0.001c0.009,0,0.019-0.001,0.029-0.001C26.689,5.29,28.109,8.727,27.988,10.578z"
   id="path1" /> </g> </g>

<path
   style="fill:#ffffff;stroke:#000000;stroke-width:0.191162"
   d="m 97.95424,122.41541 c -4.863455,-0.54091 -9.082725,-4.24628 -10.303432,-9.04851 -0.159289,-0.62664 -0.289617,-1.49267 -0.289617,-1.9245 0,-0.43184 -0.303054,-2.7579 -0.673455,-5.16902 -1.119478,-7.28724 -3.847012,-26.478014 -4.861491,-34.205176 -1.952336,-14.870697 -2.797407,-23.12745 -2.623738,-25.635207 0.29305,-4.231615 2.335584,-8.833735 5.351553,-12.057816 3.726727,-3.983882 8.728258,-5.987573 14.94594,-5.987573 7.06505,0 12.53285,2.564394 16.33757,7.662323 1.94294,2.603327 3.20565,5.596544 3.77943,8.95904 0.28295,1.658136 0.29379,2.245369 0.0907,4.913111 -0.62817,8.249917 -3.22119,28.263506 -6.55968,50.629308 -0.73761,4.94155 -1.41788,9.75884 -1.51172,10.70509 -0.33727,3.40135 -1.44689,5.7443 -3.76199,7.94342 -2.65071,2.51792 -6.11006,3.63924 -9.92003,3.21551 z"
   id="path2"
   transform="matrix(0.23683417,0,0,0.23683417,-0.91,-0.91)" /><path
   style="fill:#ffffff;stroke:#000000;stroke-width:0.191162"
   d="m 96.25024,165.17811 c -4.725545,-1.3269 -8.07614,-4.42814 -9.598806,-8.88447 -0.668062,-1.95519 -0.819439,-5.06702 -0.349288,-7.18026 1.075343,-4.83346 4.948651,-8.81302 9.780491,-10.0488 1.982771,-0.50711 4.851953,-0.50711 6.834723,0 3.69816,0.94583 6.91267,3.5053 8.5757,6.82817 1.1914,2.38049 1.55507,4.10078 1.44112,6.81683 -0.0693,1.65271 -0.20665,2.47526 -0.6109,3.65938 -1.32997,3.89574 -4.25844,6.88785 -8.18317,8.36102 -1.44481,0.54231 -1.81284,0.59893 -4.257785,0.65507 -1.883193,0.0432 -2.959516,-0.0181 -3.632085,-0.20694 z"
   id="path3"
   transform="matrix(0.23683417,0,0,0.23683417,-0.91,-0.91)" /></svg>
